<svg preserveAspectRatio="none" overflow="visible" style="display: block;" width="46.5373" height="46.5373" viewBox="0 0 46.5373 46.5373" fill="none" xmlns="http://www.w3.org/2000/svg">
<g id="Group 1261154138">
<g id="Vector" opacity="0.8" filter="url(#filter0_d_0_29)">
<path d="M23.2687 40.1343C12.7833 40.1343 4.26864 31.6006 4.26864 21.1343C4.26864 10.6681 12.8024 2.13432 23.2687 2.13432C33.7349 2.13432 42.2686 10.6681 42.2686 21.1343C42.2686 31.6006 33.7349 40.1343 23.2687 40.1343Z" fill="white"/>
</g>
<path id="Vector_2" d="M33.2218 20.6822C33.2218 25.9428 28.9631 30.1822 23.7218 30.1822C18.4804 30.1822 14.2218 25.9235 14.2218 20.6822C14.2218 15.4408 18.4804 11.1822 23.7218 11.1822C28.9631 11.1822 33.2218 15.4408 33.2218 20.6822Z" fill="url(#paint0_linear_0_29)"/>
</g>
<defs>
<filter id="filter0_d_0_29" x="0" y="0" width="46.5373" height="46.5373" filterUnits="userSpaceOnUse" color-interpolation-filters="sRGB">
<feFlood flood-opacity="0" result="BackgroundImageFix"/>
<feColorMatrix in="SourceAlpha" type="matrix" values="0 0 0 0 0 0 0 0 0 0 0 0 0 0 0 0 0 0 127 0" result="hardAlpha"/>
<feOffset dy="2.13432"/>
<feGaussianBlur stdDeviation="2.13432"/>
<feColorMatrix type="matrix" values="0 0 0 0 0.584314 0 0 0 0 0.662745 0 0 0 0 0.796078 0 0 0 0.8 0"/>
<feBlend mode="normal" in2="BackgroundImageFix" result="effect1_dropShadow_0_29"/>
<feBlend mode="normal" in="SourceGraphic" in2="effect1_dropShadow_0_29" result="shape"/>
</filter>
<linearGradient id="paint0_linear_0_29" x1="16.9773" y1="13.957" x2="30.4276" y2="27.4073" gradientUnits="userSpaceOnUse">
<stop stop-color="#FFD81F"/>
<stop offset="1" stop-color="#FDB100"/>
</linearGradient>
</defs>
</svg>
