<svg preserveAspectRatio="none" overflow="visible" style="display: block;" width="25.0654" height="25.874" viewBox="0 0 25.0654 25.874" fill="none" xmlns="http://www.w3.org/2000/svg">
<g id="_1" clip-path="url(#clip0_0_4)">
<path id="Vector" d="M18.7939 4.13962C18.4006 4.13962 18.034 4.15412 17.6689 4.13164C17.5457 4.12366 17.3642 4.0497 17.3253 3.95689C17.2864 3.86407 17.3657 3.6799 17.4506 3.59433C18.5612 2.46027 19.6783 1.33273 20.8019 0.211712C21.0856 -0.0732544 21.2967 -0.0689034 21.5855 0.221139C22.6925 1.33345 23.8002 2.44432 24.8985 3.56533C24.9914 3.66032 25.0771 3.83144 25.0606 3.95254C25.0325 4.14977 24.8316 4.14179 24.6659 4.14107C24.3166 4.14107 23.9673 4.14107 23.5812 4.14107V23.0105C23.5812 23.7545 23.2931 24.046 22.5556 24.046C21.6028 24.046 20.6499 24.046 19.6978 24.046C19.2548 24.046 18.9451 23.8473 18.8493 23.4775C18.8187 23.3428 18.8379 23.2016 18.9033 23.0801C19.6651 21.8422 20.0546 20.4087 20.0247 18.9528C20.0025 17.6073 19.6227 16.2923 18.9249 15.1446C18.8451 15.0072 18.8019 14.8513 18.7996 14.6921C18.7924 11.2904 18.7905 7.88866 18.7939 4.48694V4.13962Z" fill="#8FD7DF"/>
<path id="Vector_2" d="M1.48379 11.3429C1.09415 11.3429 0.735467 11.3588 0.379674 11.3349C0.247152 11.3255 0.0706953 11.253 0.0101961 11.1522C-0.0315772 11.0797 0.0584511 10.8803 0.144879 10.7896C1.25643 9.65652 2.37351 8.52922 3.49611 7.40772C3.76979 7.13291 3.98515 7.13218 4.25811 7.40772C5.37879 8.53164 6.4961 9.65869 7.61005 10.7889C7.69648 10.8766 7.78651 11.0789 7.74474 11.1514C7.68568 11.253 7.5085 11.3262 7.37742 11.3349C7.01731 11.3596 6.66223 11.3436 6.27115 11.3436V11.6576C6.27115 12.6727 6.27691 13.6879 6.26539 14.6972C6.25972 14.8563 6.21572 15.0115 6.13719 15.1497C4.66864 17.7492 4.6492 20.3538 6.10262 22.9634C6.36046 23.4253 6.15375 23.9061 5.6287 24.0185C5.52277 24.038 5.41516 24.0468 5.30748 24.0446C4.35438 24.0446 3.40152 24.0446 2.4489 24.0446C1.78773 24.0446 1.48451 23.732 1.48451 23.057C1.48451 19.2758 1.48451 15.4941 1.48451 11.712L1.48379 11.3429Z" fill="#8FD7DF"/>
<path id="Vector_3" d="M12.5351 25.874C11.6506 25.8749 10.7747 25.7005 9.9572 25.3606C9.13973 25.0207 8.39675 24.5221 7.77069 23.8931C7.14463 23.2642 6.64775 22.5173 6.30842 21.695C5.96909 20.8727 5.79395 19.9912 5.793 19.1008C5.78868 15.3505 8.83021 12.2898 12.5466 12.3043C14.333 12.3101 16.0443 13.0285 17.3056 14.3021C18.5669 15.5758 19.2753 17.3008 19.2757 19.0993C19.2749 19.9897 19.1 20.8713 18.7608 21.6936C18.4217 22.516 17.925 23.263 17.299 23.8921C16.6731 24.5212 15.9302 25.02 15.1128 25.3601C14.2954 25.7001 13.4195 25.8747 12.5351 25.874ZM12.5524 13.5211C11.0846 13.5164 9.67494 14.0977 8.63218 15.1376C7.58942 16.1775 6.99864 17.5912 6.9893 19.0688C6.97418 22.1266 9.44313 24.6478 12.4753 24.6688C13.2067 24.6765 13.9324 24.5384 14.6106 24.2625C15.2888 23.9866 15.9061 23.5784 16.4269 23.0613C16.9477 22.5443 17.3618 21.9286 17.6453 21.2497C17.9288 20.5708 18.076 19.8422 18.0787 19.1058C18.0895 16.0372 15.6148 13.5363 12.5524 13.5211Z" fill="#8FD7DF"/>
<path id="Vector_4" d="M14.921 7.73617V11.9324C13.3711 11.4223 11.7001 11.4223 10.1502 11.9324V7.73617C9.75188 7.73617 9.38529 7.74995 9.02085 7.72892C8.89625 7.72094 8.71043 7.65641 8.67369 7.56359C8.63696 7.47078 8.71043 7.28225 8.79542 7.19524C9.90601 6.0619 11.0281 4.93798 12.1459 3.81407C12.434 3.52402 12.635 3.52402 12.9274 3.81914C14.0408 4.93726 15.155 6.05465 16.2584 7.18219C16.3492 7.27428 16.419 7.4599 16.3895 7.57374C16.3686 7.65278 16.1648 7.71877 16.0395 7.72892C15.6815 7.74922 15.3221 7.73617 14.921 7.73617Z" fill="#8FD7DF"/>
<path id="Vector_5" d="M12.5276 14.281C13.7955 14.2787 15.0124 14.783 15.9112 15.6833C16.81 16.5836 17.3172 17.8062 17.3214 19.0826C17.3228 20.3592 16.8215 21.5842 15.9274 22.4894C15.0333 23.3946 13.8193 23.9061 12.5513 23.9118C11.9214 23.9138 11.2972 23.7908 10.7145 23.5496C10.1318 23.3085 9.6021 22.9541 9.15563 22.5066C8.70916 22.0591 8.35472 21.5274 8.11259 20.9419C7.87046 20.3563 7.74539 19.7285 7.74454 19.0942C7.74587 17.8177 8.2503 16.5939 9.14707 15.6915C10.0438 14.789 11.2596 14.2817 12.5276 14.281ZM12.9331 22.1846L13.1254 22.1208C13.9414 21.8576 14.4528 21.1738 14.4167 20.3936C14.3822 19.6373 13.8031 18.9804 12.9936 18.7984C12.7588 18.7462 12.5117 18.7498 12.2733 18.7049C11.7483 18.6033 11.3954 18.2111 11.399 17.7528C11.4033 17.3105 11.7591 16.9059 12.2633 16.8145C12.4347 16.7833 12.6378 16.771 12.7919 16.8348C13.0748 16.9596 13.3445 17.1127 13.5971 17.2916C13.7772 17.4142 13.9428 17.4533 14.1099 17.3119C14.1492 17.2842 14.1822 17.2484 14.2067 17.2069C14.2312 17.1653 14.2467 17.119 14.252 17.071C14.2574 17.0231 14.2526 16.9745 14.2379 16.9285C14.2232 16.8825 14.199 16.8402 14.1668 16.8043C14.0795 16.6785 13.9687 16.5708 13.8406 16.4875C13.5525 16.3185 13.2399 16.1793 12.9122 16.0147C12.9057 15.882 12.9122 15.7094 12.8863 15.5405C12.856 15.3092 12.6889 15.17 12.4815 15.1961C12.2654 15.2243 12.1487 15.3578 12.1466 15.5818C12.1466 15.7413 12.1466 15.9009 12.1466 16.051C12.0299 16.0872 11.9435 16.1111 11.8585 16.1409C11.1599 16.386 10.6766 17.003 10.6492 17.6846C10.637 18.04 10.7366 18.3902 10.9338 18.6851C11.1311 18.9801 11.4159 19.2048 11.7476 19.327C12.0357 19.4372 12.3562 19.472 12.6659 19.5017C13.2039 19.5605 13.6418 19.9549 13.6641 20.4335C13.6864 20.9121 13.3285 21.3036 12.7998 21.4204C12.3115 21.5284 11.9269 21.3479 11.5754 21.0179C11.3594 20.8149 11.1433 20.8214 10.9863 21.0042C10.8466 21.1702 10.8631 21.4153 11.0756 21.5734C11.4083 21.8206 11.7656 22.0338 12.1559 22.2891C12.2114 22.8517 12.287 23.0142 12.5571 22.9837C13.0829 22.9293 12.8639 22.4906 12.9345 22.1846H12.9331Z" fill="#8FD7DF"/>
</g>
<defs>
<clipPath id="clip0_0_4">
<rect width="25.0654" height="25.874" fill="white"/>
</clipPath>
</defs>
</svg>
