<svg preserveAspectRatio="none" overflow="visible" style="display: block;" width="65.5984" height="112.855" viewBox="0 0 65.5984 112.855" fill="none" xmlns="http://www.w3.org/2000/svg">
<g id="Group 1261154158">
<path id="Polygon 12" d="M30.1091 52.9149C31.7878 52.0078 33.8106 52.0078 35.4893 52.9149L58.2354 65.2056C60.0643 66.1938 61.2041 68.1052 61.2041 70.184V94.132C61.2041 96.2108 60.0643 98.1222 58.2354 99.1105L35.4893 111.401C33.8106 112.308 31.7878 112.308 30.1091 111.401L7.36297 99.1105C5.53408 98.1222 4.39427 96.2108 4.39427 94.132V70.184C4.39427 68.1052 5.53408 66.1938 7.36297 65.2056L30.1091 52.9149Z" fill="#0066CC"/>
<g id="Group 1261153969">
<path id="Vector" d="M21.0209 7.54709L21.0149 18.8895C21.0149 19.8873 21.8137 20.6376 22.7991 20.6615H34.7583C35.244 20.6615 35.5872 21.0487 35.5972 21.4797C35.6072 21.9107 35.2761 22.3278 34.7844 22.3278H22.7951C20.9366 22.3278 19.3431 20.8232 19.3431 18.9514V3.39245C19.3411 1.47078 20.9607 9.92417e-05 22.8573 9.92417e-05H41.7083C43.6992 -0.00189626 45.2686 1.51468 45.2666 3.51019L45.2625 13.9726C45.2625 14.4635 44.8611 14.8027 44.4256 14.8027C43.9901 14.8027 43.5888 14.4595 43.5868 13.9746L43.5827 7.54509H21.0169L21.0209 7.54709ZM43.5848 5.87885L43.5908 3.44234C43.5667 2.45856 42.8141 1.69628 41.8166 1.67033H22.8091C21.8076 1.6863 21.0169 2.45656 21.0149 3.44833V5.87885H43.5848Z" fill="white"/>
<path id="Vector_2" d="M42.5664 21.244L41.4345 24.5845C41.1977 25.2869 40.6017 25.7418 39.8752 25.7558C39.1888 25.7678 38.4803 25.3747 38.2596 24.6543L35.7991 16.6284C35.6084 16.0038 35.759 15.3852 36.1925 14.9442C36.626 14.5032 37.2722 14.3256 37.9164 14.5211L45.9401 16.9497C46.6846 17.1752 47.1081 17.8576 47.0961 18.576C47.084 19.2944 46.6004 19.901 45.8759 20.1425L42.5644 21.244H42.5664ZM42.0908 19.6496L45.4102 18.5301L37.3966 16.1076L39.833 24.0736L40.979 20.7152C41.1556 20.1963 41.5509 19.8192 42.0928 19.6476L42.0908 19.6496Z" fill="white"/>
<path id="Vector_3" d="M26.2875 3.06925C26.717 2.9256 27.1244 3.17099 27.2408 3.55405C27.3572 3.93711 27.1525 4.34411 26.7652 4.4698C26.3778 4.59549 25.9624 4.41195 25.8199 4.00295C25.6995 3.66179 25.856 3.21289 26.2855 3.06925H26.2875Z" fill="white"/>
<path id="Vector_4" d="M23.6611 3.06507C24.0986 2.9274 24.5 3.18677 24.6084 3.57382C24.7168 3.96087 24.496 4.34592 24.1408 4.46563C23.7334 4.60129 23.324 4.39979 23.1855 4.01074C23.057 3.65163 23.2296 3.20073 23.6611 3.06507Z" fill="white"/>
<path id="Vector_5" d="M28.9031 3.07726C29.3206 2.92363 29.726 3.14708 29.8604 3.49822C30.011 3.88926 29.8163 4.31821 29.431 4.45986C29.0456 4.60151 28.6462 4.43193 28.4837 4.06483C28.3211 3.69773 28.4696 3.23686 28.9011 3.07726H28.9031Z" fill="white"/>
</g>
</g>
</svg>
