<svg preserveAspectRatio="none" overflow="visible" style="display: block;" width="46.5373" height="46.5373" viewBox="0 0 46.5373 46.5373" fill="none" xmlns="http://www.w3.org/2000/svg">
<g id="Group 1261154137">
<g id="Vector" opacity="0.8" filter="url(#filter0_d_0_19)">
<path d="M23.2687 40.1343C12.7833 40.1343 4.26864 31.6049 4.26864 21.1439C4.26864 10.6829 12.8024 2.13432 23.2687 2.13432C33.7349 2.13432 42.2686 10.6637 42.2686 21.1439C42.2686 31.624 33.7349 40.1343 23.2687 40.1343Z" fill="white"/>
</g>
<path id="Vector_2" d="M23.2883 30.4526C28.4238 30.4526 32.587 26.2895 32.587 21.1539C32.587 16.0184 28.4238 11.8553 23.2883 11.8553C18.1528 11.8553 13.9896 16.0184 13.9896 21.1539C13.9896 26.2895 18.1528 30.4526 23.2883 30.4526Z" fill="url(#paint0_linear_0_19)"/>
</g>
<defs>
<filter id="filter0_d_0_19" x="0" y="0" width="46.5373" height="46.5373" filterUnits="userSpaceOnUse" color-interpolation-filters="sRGB">
<feFlood flood-opacity="0" result="BackgroundImageFix"/>
<feColorMatrix in="SourceAlpha" type="matrix" values="0 0 0 0 0 0 0 0 0 0 0 0 0 0 0 0 0 0 127 0" result="hardAlpha"/>
<feOffset dy="2.13432"/>
<feGaussianBlur stdDeviation="2.13432"/>
<feColorMatrix type="matrix" values="0 0 0 0 0.584314 0 0 0 0 0.662745 0 0 0 0 0.796078 0 0 0 0.8 0"/>
<feBlend mode="normal" in2="BackgroundImageFix" result="effect1_dropShadow_0_19"/>
<feBlend mode="normal" in="SourceGraphic" in2="effect1_dropShadow_0_19" result="shape"/>
</filter>
<linearGradient id="paint0_linear_0_19" x1="16.7056" y1="14.5713" x2="29.8709" y2="27.7366" gradientUnits="userSpaceOnUse">
<stop stop-color="#A855FF"/>
<stop offset="1" stop-color="#F6B7FF"/>
</linearGradient>
</defs>
</svg>
